<svg width="2965" height="516" viewBox="0 0 2965 516" fill="none" xmlns="http://www.w3.org/2000/svg">
<path d="M1656.3 362.618C1656.3 418.303 1707.53 448.745 1768.54 448.745C1793.57 448.745 2056.88 448.745 2056.88 448.745C2056.88 448.745 2056.88 408.052 2056.88 380.375C2029.4 380.375 1848.01 380.375 1827.92 380.375C1817.64 380.375 1802.24 377.565 1802.24 359.265C1802.24 345.729 1802.24 278.306 1802.24 278.306H2020.58V227.861H1802.24V129.43H2028.66C2055.44 125.896 2056.88 111.776 2056.88 77.6192V67.8214H1656.3C1656.3 67.8214 1656.3 279.528 1656.3 362.618Z" fill="white"/>
<path d="M1472.33 327.553C1472.33 380.48 1448.82 380.375 1394.8 380.375H1283.4V129.43H1394.8C1450.53 129.43 1472.57 130.76 1472.57 186.991C1472.57 191.952 1472.33 320.41 1472.33 327.553V327.553ZM1442.62 67.8214H1151.12V448.745H1442.62C1555.46 448.745 1604.5 417.548 1606.64 311.271C1606.69 309.199 1606.69 212.942 1606.65 211.315C1604.98 106.455 1555.92 67.8214 1442.62 67.8214" fill="white"/>
<path d="M943.494 119.89V377.718C943.494 377.718 837.115 377.718 836.807 377.718C788.723 377.718 757.957 362.016 757.957 305.863V67.1418H670.254C627.01 67.1418 625.152 79.6389 625.121 119.89V305.863C625.121 419.829 670.55 449.389 775.302 449.389C775.822 449.389 1083.2 449.373 1083.2 449.373V67.1418H988.648C945.396 67.1418 943.544 79.6389 943.494 119.89" fill="white"/>
<path d="M2750.5 380.375C2697.92 380.375 2691.25 351.174 2690.85 306.401C2690.85 306.105 2690.85 201.602 2690.85 201.327C2690.85 156.013 2700.02 127.034 2752.92 127.034H2943.98C2962.35 120.462 2961.6 103.328 2961.6 67.8214H2685.53C2578.12 67.8214 2542.48 129.881 2542.48 228.642C2542.48 229.138 2542.48 288.355 2542.48 288.811C2543.04 387.24 2577.25 448.745 2684.07 448.745H2919.51C2959.48 448.745 2964.06 438.049 2964.56 404.616V380.375H2750.5Z" fill="white"/>
<path d="M2375.75 214.405C2349.77 214.405 2266.06 214.405 2266.06 214.405C2238.18 214.405 2226.23 197.391 2226.23 172.446C2226.23 147.551 2238.18 129.361 2266.06 129.361H2468.2C2487.67 126.693 2493.55 118.263 2495.31 100.403V67.8214H2246.83C2152.1 67.8214 2091.52 95.6511 2091.52 179.312C2091.52 258.256 2129.31 288.287 2218.24 288.287V288.487C2221.27 288.487 2309.99 288.531 2336.37 288.531C2362.7 288.531 2374.25 307.412 2374.25 330.431C2374.25 355.364 2362.4 380.375 2322.73 380.375C2322.73 380.375 2120.26 380.375 2098.37 380.375C2098.37 440.542 2124.66 448.745 2150.8 448.745C2176.95 448.745 2369.9 448.745 2369.9 448.745C2464.65 448.745 2508.95 419.389 2508.95 330.431C2508.95 241.48 2471.82 214.405 2375.75 214.405Z" fill="white"/>
<path d="M426.984 414.649C426.984 368.087 389.232 330.332 342.667 330.332C296.095 330.332 258.331 368.087 258.331 414.649C258.331 461.235 296.095 498.98 342.667 498.98C389.232 498.98 426.984 461.235 426.984 414.649Z" fill="white"/>
<path d="M333.25 273.112C333.25 273.112 241.078 273.067 126.356 273.067C74.9996 273.067 0.710938 271.884 0.710938 359.547C0.710938 359.547 0.710938 415.536 0.710938 440.904C0.710938 518.019 74.9996 515.797 126.356 515.797C131.818 515.797 144.997 515.797 150.518 515.797C161.362 515.797 197.934 515.797 241.522 515.797C241.522 515.797 241.522 470.685 241.522 407.306C241.522 343.939 291.701 313.502 342.667 313.502C404.421 313.502 443.814 352.571 443.814 408.407C443.814 464.228 443.814 515.797 443.814 515.797H535.197V359.547C535.197 273.067 462.951 273.112 411.056 273.112C410.313 273.112 361.863 273.128 361.12 273.128L333.25 273.112" fill="white"/>
<path d="M202.655 243.417C202.655 243.417 294.828 243.464 409.549 243.464C460.906 243.464 535.197 244.649 535.197 156.982C535.197 156.982 535.197 100.993 535.197 75.6276C535.197 -1.48729 460.906 0.739355 409.549 0.739355C404.087 0.739355 390.908 0.739355 385.39 0.739355C374.543 0.739355 337.974 0.739355 294.386 0.739355C294.386 0.739355 294.386 45.8486 294.386 109.218C294.386 172.59 244.207 203.027 193.241 203.027C131.484 203.027 92.0887 163.961 92.0887 108.122C92.0887 52.3029 92.0887 0.739355 92.0887 0.739355H0.706177V156.982C0.706177 243.464 72.954 243.417 124.851 243.417C125.592 243.417 174.045 243.403 174.786 243.403L202.655 243.417" fill="white"/>
<path d="M108.917 101.866C108.917 148.426 146.671 186.199 193.248 186.199C239.817 186.199 277.565 148.426 277.565 101.866C277.565 55.289 239.817 17.5487 193.248 17.5487C146.671 17.5487 108.917 55.289 108.917 101.866Z" fill="white"/>
</svg>
